<?xml version="1.0" standalone="no"?>
<!DOCTYPE svg PUBLIC "-//W3C//DTD SVG 20010904//EN"
 "http://www.w3.org/TR/2001/REC-SVG-20010904/DTD/svg10.dtd">
<svg version="1.0" xmlns="http://www.w3.org/2000/svg"
 width="90.000000pt" height="90.000000pt" viewBox="0 0 90.000000 90.000000"
 preserveAspectRatio="xMidYMid meet">
<metadata>
Created by potrace 1.14, written by Peter Selinger 2001-2017
</metadata>
<g transform="translate(0.000000,90.000000) scale(0.100000,-0.100000)"
fill="#000000" stroke="none">
<path d="M435 850 c-32 -12 -44 -33 -49 -79 -4 -45 -26 -70 -62 -71 -34 0 -84
-21 -93 -39 -5 -9 -12 -35 -16 -59 -8 -50 -31 -65 -111 -71 -5 -1 -20 -10 -32
-21 -48 -45 -9 -130 60 -130 48 0 75 -23 83 -71 10 -57 40 -88 95 -95 55 -7
68 -19 74 -64 6 -50 14 -66 41 -80 55 -30 125 6 125 64 0 35 -46 76 -85 76
-48 0 -77 28 -81 79 -4 53 29 93 73 89 51 -3 93 33 93 81 0 26 -39 69 -65 72
-61 5 -90 -20 -99 -86 -8 -51 -20 -63 -68 -68 -54 -6 -98 16 -99 50 -5 85 4
99 74 112 61 11 83 32 90 82 7 55 29 75 85 82 91 10 114 103 35 145 -25 14
-40 14 -68 2z"/>
<path d="M595 650 c-27 -30 -7 -70 35 -70 42 0 62 40 35 70 -10 11 -26 20 -35
20 -9 0 -25 -9 -35 -20z"/>
<path d="M762 498 c-15 -15 -15 -51 0 -66 15 -15 51 -15 66 0 28 28 7 78 -33
78 -12 0 -26 -5 -33 -12z"/>
<path d="M588 325 c-9 -21 -8 -28 7 -45 10 -11 26 -20 35 -20 9 0 25 9 35 20
27 30 7 70 -35 70 -23 0 -33 -6 -42 -25z"/>
</g>
</svg>
